<svg width="34" height="34" viewBox="0 0 34 34" fill="none" xmlns="http://www.w3.org/2000/svg">
<path d="M32.6661 27.7467C31.8132 25.8382 30.5755 24.1046 29.022 22.6425C27.4732 21.1761 25.6384 20.0071 23.6191 19.1997C23.601 19.1912 23.5829 19.1869 23.5649 19.1784C26.3816 17.2563 28.2127 14.1254 28.2127 10.593C28.2127 4.74121 23.1941 0 17 0C10.8059 0 5.78731 4.74121 5.78731 10.593C5.78731 14.1254 7.61841 17.2563 10.4352 19.1827C10.4171 19.1912 10.399 19.1955 10.3809 19.204C8.35538 20.0113 6.53784 21.1688 4.97801 22.6467C3.4259 24.11 2.18842 25.8433 1.33388 27.751C0.494386 29.6187 0.0416268 31.621 0.000113058 33.6497C-0.00109369 33.6953 0.00737021 33.7407 0.0250063 33.7831C0.0426423 33.8256 0.0690936 33.8643 0.102801 33.8969C0.136509 33.9296 0.176792 33.9555 0.221275 33.9732C0.265759 33.9909 0.313543 34 0.361813 34H3.07456C3.2735 34 3.43174 33.8505 3.43626 33.6668C3.52669 30.3693 4.92827 27.2812 7.40591 24.9405C9.96946 22.5186 13.374 21.1859 17 21.1859C20.626 21.1859 24.0305 22.5186 26.5941 24.9405C29.0717 27.2812 30.4733 30.3693 30.5637 33.6668C30.5683 33.8548 30.7265 34 30.9254 34H33.6382C33.6865 34 33.7342 33.9909 33.7787 33.9732C33.8232 33.9555 33.8635 33.9296 33.8972 33.8969C33.9309 33.8643 33.9574 33.8256 33.975 33.7831C33.9926 33.7407 34.0011 33.6953 33.9999 33.6497C33.9547 31.608 33.5071 29.6219 32.6661 27.7467ZM17 17.9397C14.9247 17.9397 12.9716 17.1751 11.5022 15.7869C10.0328 14.3987 9.22346 12.5535 9.22346 10.593C9.22346 8.63241 10.0328 6.78719 11.5022 5.39899C12.9716 4.0108 14.9247 3.24623 17 3.24623C19.0753 3.24623 21.0284 4.0108 22.4978 5.39899C23.9672 6.78719 24.7765 8.63241 24.7765 10.593C24.7765 12.5535 23.9672 14.3987 22.4978 15.7869C21.0284 17.1751 19.0753 17.9397 17 17.9397Z" fill="black"/>
</svg>
